<svg width="28" height="28" viewBox="0 0 28 28" fill="none" xmlns="http://www.w3.org/2000/svg">
<path d="M8.16667 10.5V17.5M8.16667 10.5H7C5.91267 10.5 5.369 10.5 4.94083 10.6773C4.65754 10.7946 4.40014 10.9665 4.18334 11.1833C3.96654 11.4001 3.7946 11.6575 3.67733 11.9408C3.5 12.369 3.5 12.9126 3.5 14C3.5 15.0873 3.5 15.631 3.67733 16.0591C3.7946 16.3424 3.96654 16.5998 4.18334 16.8166C4.40014 17.0334 4.65754 17.2054 4.94083 17.3226C5.369 17.5 5.91267 17.5 7 17.5H8.16667M8.16667 10.5L17.5933 7.67196C18.7005 7.33946 19.2547 7.17379 19.747 6.88213L19.7703 6.86696C20.2603 6.57296 20.6698 6.16346 21.4877 5.34563L21.6837 5.14963C21.8225 5.01079 21.8925 4.94079 21.9695 4.88596C22.1153 4.78099 22.2834 4.71112 22.4607 4.68179C22.5552 4.66663 22.6532 4.66663 22.8503 4.66663C23.2983 4.66663 23.5247 4.66663 23.7067 4.72729C23.877 4.78473 24.0317 4.88074 24.1588 5.00783C24.2859 5.13492 24.3819 5.28965 24.4393 5.45996C24.5 5.64196 24.5 5.86713 24.5 6.31629V21.6836C24.5 22.1328 24.5 22.358 24.4393 22.54C24.3819 22.7103 24.2859 22.865 24.1588 22.9921C24.0317 23.1192 23.877 23.2152 23.7067 23.2726C23.5247 23.3333 23.2995 23.3333 22.8503 23.3333C22.6532 23.3333 22.554 23.3333 22.4607 23.3181C22.2834 23.2888 22.1153 23.2189 21.9695 23.114C21.8925 23.0591 21.8237 22.9903 21.6837 22.8503L21.4877 22.6543C20.6687 21.8365 20.2603 21.427 19.7703 21.1318L19.747 21.1178C19.2547 20.8261 18.7017 20.6605 17.5933 20.328L8.16667 17.5" stroke="#F2F0F0" stroke-width="1.75" stroke-linecap="round" stroke-linejoin="round"/>
<path d="M9.33337 18.0833V21.0536C9.33328 21.5429 9.49065 22.0193 9.78221 22.4123C10.0738 22.8053 10.4841 23.0941 10.9524 23.2359C11.4207 23.3777 11.9223 23.365 12.3829 23.1998C12.8435 23.0345 13.2387 22.7255 13.51 22.3183L15.1667 19.8333" stroke="#F2F0F0" stroke-width="1.75" stroke-linecap="round" stroke-linejoin="round"/>
</svg>
