<svg width="28" height="28" viewBox="0 0 28 28" fill="none" xmlns="http://www.w3.org/2000/svg">
<path d="M22.0016 25.597C23.3036 25.597 24.9626 25.3712 24.7777 21.6636C24.5968 18.0352 18.7227 16.1965 14 16.1965C9.27733 16.1965 3.40316 18.0358 3.22233 21.6636C3.03741 25.3712 4.69641 25.597 5.999 25.597H22.0016ZM19.4256 7.8286C19.4256 9.26755 18.854 10.6476 17.8365 11.6651C16.819 12.6826 15.439 12.903 14 12.903C12.561 12.903 11.181 12.6826 10.1635 11.6651C9.14603 10.6476 8.57441 9.26755 8.57441 7.8286C8.57441 6.38964 9.14603 5.00963 10.1635 3.99213C11.181 2.97464 12.561 2.40301 14 2.40301C15.439 2.40301 16.819 2.97464 17.8365 3.99213C18.854 5.00963 19.4256 6.38964 19.4256 7.8286Z" stroke="#F2F0F0" stroke-width="1.75" stroke-linecap="round" stroke-linejoin="round"/>
</svg>
