<svg width="40" height="37" viewBox="0 0 40 37" fill="none" xmlns="http://www.w3.org/2000/svg">
<path d="M36.5281 15.6654C36.5581 15.9254 36.582 16.1865 36.5997 16.4488C36.6881 17.8338 36.6881 19.2654 36.5997 20.6504C36.1431 27.7204 30.5897 33.3538 23.6164 33.8171C21.2079 33.9758 18.7916 33.9758 16.3831 33.8171C15.533 33.7586 14.6973 33.5674 13.9064 33.2504C13.0531 32.9004 12.6264 32.7238 12.4081 32.7504C12.1914 32.7771 11.8764 33.0088 11.2481 33.4738C10.1381 34.2904 8.73974 34.8804 6.66474 34.8288C5.61641 34.8038 5.09308 34.7904 4.85808 34.3904C4.62308 33.9904 4.91474 33.4371 5.49974 32.3288C6.31141 30.7921 6.82474 29.0321 6.04641 27.6238C4.70474 25.6104 3.56641 23.2254 3.39974 20.6504C3.31145 19.2518 3.31145 17.849 3.39974 16.4504C3.85641 9.38043 9.40974 3.7471 16.3831 3.28377C18.4192 3.14976 20.4613 3.12917 22.4997 3.2221M14.1664 23.1654H25.8331M14.1664 14.8321H18.3331" stroke="#F2F0F0" stroke-width="3" stroke-linecap="round" stroke-linejoin="round"/>
<path d="M34.7795 2.23197L35.9345 3.3853C36.4032 3.85412 36.6665 4.48989 36.6665 5.1528C36.6665 5.81571 36.4032 6.45148 35.9345 6.9203L29.8878 13.082C29.4123 13.5577 28.804 13.8784 28.1428 14.002L24.3962 14.8153C24.2599 14.8449 24.1184 14.8399 23.9846 14.8007C23.8508 14.7614 23.729 14.6893 23.6303 14.5907C23.5317 14.4922 23.4593 14.3705 23.4198 14.2368C23.3804 14.1031 23.3751 13.9616 23.4045 13.8253L24.2028 10.1003C24.326 9.43933 24.6461 8.83104 25.1212 8.3553L31.2445 2.23197C31.7133 1.76329 32.3491 1.5 33.012 1.5C33.6749 1.5 34.3107 1.76329 34.7795 2.23197Z" stroke="#F2F0F0" stroke-width="3" stroke-linecap="round" stroke-linejoin="round"/>
</svg>
