<svg width="28" height="28" viewBox="0 0 28 28" fill="none" xmlns="http://www.w3.org/2000/svg">
<path d="M16.5316 24.3716C21.413 24.0485 25.3003 20.1051 25.62 15.155C25.6818 14.1866 25.6818 13.1833 25.62 12.215C25.3003 7.26597 21.413 3.32497 16.5316 2.99947C14.8457 2.88836 13.1543 2.88836 11.4683 2.99947C6.58697 3.3238 2.69964 7.26597 2.37997 12.2161C2.31817 13.1952 2.31817 14.1771 2.37997 15.1561C2.49664 16.9586 3.29347 18.6281 4.23264 20.0375C4.77747 21.0233 4.41814 22.2541 3.84997 23.331C3.44164 24.1068 3.2363 24.4941 3.4008 24.7741C3.56414 25.0541 3.93164 25.0635 4.66547 25.081C6.11797 25.116 7.0968 24.7053 7.8738 24.1325C8.31364 23.807 8.53414 23.6448 8.6858 23.6261C8.83747 23.6075 9.1373 23.7311 9.73464 23.9761C10.2713 24.1978 10.8955 24.3343 11.4671 24.3728C13.1296 24.4825 14.8668 24.4825 16.5328 24.3728L16.5316 24.3716Z" stroke="#F2F0F0" stroke-width="1.5" stroke-linejoin="round"/>
</svg>
