<svg width="28" height="28" viewBox="0 0 28 28" fill="none" xmlns="http://www.w3.org/2000/svg">
<path d="M18.6667 4.66663C19.469 4.6664 20.247 4.94181 20.8705 5.44676C21.494 5.9517 21.925 6.65552 22.0915 7.44036C22.258 8.2252 22.1498 9.04341 21.785 9.75799C21.4202 10.4726 20.821 11.0401 20.0877 11.3656M20.6664 15.1666C21.323 15.1666 21.9733 15.296 22.5799 15.5473C23.1866 15.7985 23.7378 16.1669 24.2021 16.6312C24.6665 17.0955 25.0348 17.6467 25.2861 18.2534C25.5374 18.8601 25.6667 19.5103 25.6667 20.167C25.6667 21.2718 24.7719 22.1666 23.667 22.1666M9.33337 4.66663C8.53107 4.6664 7.75305 4.94181 7.12957 5.44676C6.5061 5.9517 6.07504 6.65552 5.90855 7.44036C5.74207 8.2252 5.85029 9.04341 6.21507 9.75799C6.57986 10.4726 7.17907 11.0401 7.91237 11.3656M4.33304 22.1666C3.8027 22.1666 3.29407 21.9559 2.91906 21.5809C2.54405 21.2059 2.33337 20.6973 2.33337 20.167C2.33337 19.5103 2.46271 18.8601 2.714 18.2534C2.96529 17.6467 3.33361 17.0955 3.79794 16.6312C4.26226 16.1669 4.81349 15.7985 5.42016 15.5473C6.02683 15.296 6.67705 15.1666 7.33371 15.1666M17.5 9.33329C17.5 10.2616 17.1313 11.1518 16.4749 11.8082C15.8185 12.4645 14.9283 12.8333 14 12.8333C13.0718 12.8333 12.1815 12.4645 11.5252 11.8082C10.8688 11.1518 10.5 10.2616 10.5 9.33329C10.5 8.40504 10.8688 7.5148 11.5252 6.85842C12.1815 6.20204 13.0718 5.83329 14 5.83329C14.9283 5.83329 15.8185 6.20204 16.4749 6.85842C17.1313 7.5148 17.5 8.40504 17.5 9.33329ZM15.9997 16.3333H12.0004C11.3437 16.3333 10.6935 16.4626 10.0868 16.7139C9.48016 16.9652 8.92893 17.3335 8.4646 17.7979C8.00028 18.2622 7.63196 18.8134 7.38067 19.4201C7.12938 20.0268 7.00004 20.677 7.00004 21.3336C7.00004 22.4385 7.89487 23.3333 8.99971 23.3333H19.0004C20.1052 23.3333 21 22.4385 21 21.3336C21 20.677 20.8707 20.0268 20.6194 19.4201C20.3681 18.8134 19.9998 18.2622 19.5355 17.7979C19.0712 17.3335 18.5199 16.9652 17.9133 16.7139C17.3066 16.4626 16.6564 16.3333 15.9997 16.3333Z" stroke="#F2F0F0" stroke-width="1.75" stroke-linecap="round" stroke-linejoin="round"/>
</svg>
