<svg width="28" height="21" viewBox="0 0 28 21" fill="none" xmlns="http://www.w3.org/2000/svg">
<path d="M10.7927 19.8411C10.4043 20.2434 9.76157 20.249 9.36619 19.8536L0.292922 10.7803C-0.0976024 10.3898 -0.0976021 9.75666 0.292922 9.36614L9.36619 0.292863C9.76157 -0.102514 10.4043 -0.0968765 10.7927 0.305375L11.8533 1.40385C12.2322 1.79625 12.2267 2.41986 11.841 2.80555L8.03042 6.61613C7.40046 7.2461 7.84662 8.32324 8.73753 8.32324H26.5858C27.1381 8.32324 27.5858 8.77096 27.5858 9.32324V10.8232C27.5858 11.3755 27.1381 11.8232 26.5858 11.8232H8.73753C7.84662 11.8232 7.40046 12.9004 8.03042 13.5303L11.841 17.3409C12.2267 17.7266 12.2322 18.3502 11.8533 18.7426L10.7927 19.8411Z" fill="#F2F0F0"/>
</svg>
