<svg width="40" height="40" viewBox="0 0 40 40" fill="none" xmlns="http://www.w3.org/2000/svg">
<g clip-path="url(#clip0_1499_4393)">
<path d="M35.5292 11.9023L34.7065 10.4747C34.0843 9.39496 33.7734 8.85511 33.244 8.63982C32.7147 8.42456 32.116 8.59442 30.9188 8.93416L28.8852 9.50699C28.1209 9.68326 27.3189 9.58326 26.621 9.22467L26.0595 8.90072C25.461 8.51741 25.0007 7.95224 24.7459 7.28792L24.1894 5.62562C23.8234 4.52559 23.6404 3.97557 23.2047 3.66097C22.7692 3.34637 22.1905 3.34637 21.0332 3.34637H19.1752C18.018 3.34637 17.4394 3.34637 17.0037 3.66097C16.5681 3.97557 16.3851 4.52559 16.0192 5.62562L15.4626 7.28792C15.2078 7.95224 14.7474 8.51741 14.149 8.90072L13.5875 9.22467C12.8896 9.58326 12.0877 9.68326 11.3233 9.50699L9.2896 8.93416C8.09237 8.59442 7.49377 8.42456 6.96447 8.63982C6.43517 8.85511 6.1241 9.39496 5.50193 10.4747L4.6793 11.9023C4.09612 12.9144 3.80452 13.4205 3.86112 13.9592C3.9177 14.4979 4.30807 14.932 5.08878 15.8002L6.80718 17.7214C7.22718 18.253 7.52537 19.1797 7.52537 20.0129C7.52537 20.8464 7.22728 21.7727 6.80724 22.3045L5.08878 24.2257C4.30807 25.094 3.91772 25.528 3.86112 26.0669C3.80452 26.6055 4.09612 27.1115 4.6793 28.1235L5.50192 29.5512C6.12407 30.6309 6.43517 31.1709 6.96447 31.386C7.49377 31.6014 8.09238 31.4315 9.28963 31.0917L11.3233 30.5189C12.0877 30.3425 12.8898 30.4427 13.5878 30.8014L14.1492 31.1254C14.7475 31.5087 15.2078 32.0737 15.4625 32.738L16.0192 34.4005C16.3851 35.5005 16.5681 36.0505 17.0037 36.3652C17.4394 36.6797 18.018 36.6797 19.1752 36.6797H21.0332C22.1905 36.6797 22.7692 36.6797 23.2047 36.3652C23.6404 36.0505 23.8234 35.5005 24.1894 34.4005L24.746 32.738C25.0007 32.0737 25.4609 31.5087 26.0594 31.1254L26.6207 30.8014C27.3187 30.4427 28.1207 30.3425 28.8852 30.5189L30.9188 31.0917C32.116 31.4315 32.7147 31.6014 33.244 31.386C33.7734 31.1709 34.0843 30.6309 34.7065 29.5512L35.5292 28.1235C36.1123 27.1115 36.4038 26.6055 36.3473 26.0669C36.2907 25.528 35.9004 25.094 35.1197 24.2257L33.4012 22.3045C32.9812 21.7727 32.683 20.8464 32.683 20.0129C32.683 19.1797 32.9814 18.253 33.4012 17.7214L35.1197 15.8002C35.9004 14.932 36.2907 14.4979 36.3473 13.9592C36.4038 13.4205 36.1123 12.9144 35.5292 11.9023Z" stroke="url(#paint0_linear_1499_4393)" stroke-width="3" stroke-linecap="round" stroke-linejoin="round"/>
<path d="M25.8658 20C25.8658 23.2217 23.2542 25.8334 20.0325 25.8334C16.8108 25.8334 14.1992 23.2217 14.1992 20C14.1992 16.7784 16.8108 14.1667 20.0325 14.1667C23.2542 14.1667 25.8658 16.7784 25.8658 20Z" stroke="url(#paint1_linear_1499_4393)" stroke-width="3" stroke-linecap="round" stroke-linejoin="round"/>
</g>
<defs>
<linearGradient id="paint0_linear_1499_4393" x1="3.85419" y1="20.013" x2="38.7682" y2="20.013" gradientUnits="userSpaceOnUse">
<stop offset="0.105769" stop-color="#455DBA"/>
<stop offset="1" stop-color="#5A8A6E"/>
</linearGradient>
<linearGradient id="paint1_linear_1499_4393" x1="14.1992" y1="20" x2="26.7324" y2="20" gradientUnits="userSpaceOnUse">
<stop offset="0.105769" stop-color="#455DBA"/>
<stop offset="1" stop-color="#5A8A6E"/>
</linearGradient>
<clipPath id="clip0_1499_4393">
<rect width="40" height="40" fill="white"/>
</clipPath>
</defs>
</svg>
