<svg width="30" height="32" viewBox="0 0 30 32" fill="none" xmlns="http://www.w3.org/2000/svg">
<path d="M14.7494 19.9585C17.1657 19.9585 19.1244 17.9997 19.1244 15.5835C19.1244 13.1673 17.1657 11.2085 14.7494 11.2085C12.3332 11.2085 10.3744 13.1673 10.3744 15.5835C10.3744 17.9997 12.3332 19.9585 14.7494 19.9585Z" stroke="#F2F0F0" stroke-width="2"/>
<path d="M17.3234 1.22167C16.7882 1 16.1086 1 14.7494 1C13.3903 1 12.7107 1 12.1755 1.22167C11.8214 1.36825 11.4996 1.58318 11.2286 1.85418C10.9576 2.12518 10.7427 2.44693 10.5961 2.80104C10.4619 3.12625 10.408 3.50687 10.3876 4.05958C10.3781 4.45906 10.2674 4.84961 10.0659 5.19468C9.86443 5.53976 9.57871 5.82809 9.23548 6.03271C8.88665 6.22779 8.49404 6.33119 8.09438 6.33323C7.69471 6.33527 7.30107 6.23589 6.95027 6.04437C6.46027 5.78479 6.10589 5.64187 5.75444 5.59521C4.98782 5.49439 4.21254 5.70211 3.59902 6.17271C3.1411 6.52708 2.79985 7.11479 2.12027 8.29167C1.44069 9.46854 1.09944 10.0562 1.02506 10.6323C0.974946 11.0121 1.00015 11.3981 1.09924 11.7682C1.19833 12.1383 1.36936 12.4852 1.60256 12.7892C1.81839 13.0692 2.12027 13.304 2.58839 13.5985C3.27819 14.0317 3.72152 14.7696 3.72152 15.5833C3.72152 16.3971 3.27819 17.135 2.58839 17.5667C2.12027 17.8627 1.81694 18.0975 1.60256 18.3775C1.36936 18.6815 1.19833 19.0284 1.09924 19.3985C1.00015 19.7686 0.974946 20.1545 1.02506 20.5344C1.10089 21.109 1.44069 21.6981 2.11881 22.875C2.79985 24.0519 3.13964 24.6396 3.59902 24.994C3.90299 25.2272 4.24992 25.3982 4.62001 25.4973C4.99009 25.5964 5.37607 25.6216 5.75589 25.5715C6.10589 25.5248 6.46027 25.3819 6.95027 25.1223C7.30107 24.9308 7.69471 24.8314 8.09438 24.8334C8.49404 24.8355 8.88665 24.9389 9.23548 25.134C9.93985 25.5423 10.3584 26.2933 10.3876 27.1071C10.408 27.6612 10.4605 28.0404 10.5961 28.3656C10.7427 28.7197 10.9576 29.0415 11.2286 29.3125C11.4996 29.5835 11.8214 29.7984 12.1755 29.945C12.7107 30.1667 13.3903 30.1667 14.7494 30.1667C16.1086 30.1667 16.7882 30.1667 17.3234 29.945C17.6775 29.7984 17.9993 29.5835 18.2703 29.3125C18.5413 29.0415 18.7562 28.7197 18.9028 28.3656C19.0369 28.0404 19.0909 27.6612 19.1113 27.1071C19.1405 26.2933 19.559 25.5408 20.2634 25.134C20.6122 24.9389 21.0048 24.8355 21.4045 24.8334C21.8042 24.8314 22.1978 24.9308 22.5486 25.1223C23.0386 25.3819 23.393 25.5248 23.743 25.5715C24.1228 25.6216 24.5088 25.5964 24.8789 25.4973C25.2489 25.3982 25.5959 25.2272 25.8999 24.994C26.3592 24.641 26.699 24.0519 27.3786 22.875C28.0582 21.6981 28.3994 21.1104 28.4738 20.5344C28.5239 20.1545 28.4987 19.7686 28.3996 19.3985C28.3005 19.0284 28.1295 18.6815 27.8963 18.3775C27.6805 18.0975 27.3786 17.8627 26.9105 17.5681C26.5691 17.3602 26.2861 17.069 26.0879 16.7219C25.8898 16.3747 25.7829 15.983 25.7774 15.5833C25.7774 14.7696 26.2207 14.0317 26.9105 13.6C27.3786 13.304 27.6819 13.0692 27.8963 12.7892C28.1295 12.4852 28.3005 12.1383 28.3996 11.7682C28.4987 11.3981 28.5239 11.0121 28.4738 10.6323C28.398 10.0577 28.0582 9.46854 27.3801 8.29167C26.699 7.11479 26.3592 6.52708 25.8999 6.17271C25.5959 5.93951 25.2489 5.76848 24.8789 5.66939C24.5088 5.5703 24.1228 5.54509 23.743 5.59521C23.393 5.64187 23.0386 5.78479 22.5471 6.04437C22.1965 6.23563 21.8031 6.33487 21.4038 6.33283C21.0044 6.33079 20.612 6.22753 20.2634 6.03271C19.9202 5.82809 19.6344 5.53976 19.433 5.19468C19.2315 4.84961 19.1208 4.45906 19.1113 4.05958C19.0909 3.50542 19.0384 3.12625 18.9028 2.80104C18.7562 2.44693 18.5413 2.12518 18.2703 1.85418C17.9993 1.58318 17.6775 1.36825 17.3234 1.22167Z" stroke="#F2F0F0" stroke-width="2"/>
</svg>
