<svg width="28" height="28" viewBox="0 0 28 28" fill="none" xmlns="http://www.w3.org/2000/svg">
<g clip-path="url(#clip0_2546_891)">
<path d="M24.5 5.25016H22.75V25.3752C22.75 25.7397 22.6816 26.0815 22.5449 26.4006C22.4082 26.7196 22.2214 26.9976 21.9844 27.2345C21.7474 27.4715 21.4694 27.6584 21.1504 27.7951C20.8314 27.9318 20.4896 28.0002 20.125 28.0002H6.125C5.76042 28.0002 5.41862 27.9318 5.09961 27.7951C4.7806 27.6584 4.5026 27.4715 4.26562 27.2345C4.02865 26.9976 3.8418 26.7196 3.70508 26.4006C3.56836 26.0815 3.5 25.7397 3.5 25.3752V5.25016H1.75V3.50016H8.75V1.75016C8.75 1.50407 8.79557 1.2762 8.88672 1.06657C8.97786 0.856934 9.10091 0.674642 9.25586 0.519694C9.41081 0.364746 9.59766 0.237142 9.81641 0.136882C10.0352 0.0366211 10.263 -0.00895182 10.5 0.00016276H15.75C15.9961 0.00016276 16.224 0.0457357 16.4336 0.136882C16.6432 0.228027 16.8255 0.351074 16.9805 0.506022C17.1354 0.66097 17.263 0.847819 17.3633 1.06657C17.4635 1.28532 17.5091 1.51318 17.5 1.75016V3.50016H24.5V5.25016ZM10.5 3.50016H15.75V1.75016H10.5V3.50016ZM21 5.25016H5.25V25.3752C5.25 25.6121 5.33659 25.8172 5.50977 25.9904C5.68294 26.1636 5.88802 26.2502 6.125 26.2502H20.125C20.362 26.2502 20.5671 26.1636 20.7402 25.9904C20.9134 25.8172 21 25.6121 21 25.3752V5.25016ZM10.5 22.7502H8.75V8.75016H10.5V22.7502ZM14 22.7502H12.25V8.75016H14V22.7502ZM17.5 22.7502H15.75V8.75016H17.5V22.7502Z" fill="#D80000"/>
</g>
<defs>
<clipPath id="clip0_2546_891">
<rect width="28" height="28" fill="white"/>
</clipPath>
</defs>
</svg>
