<svg width="28" height="28" viewBox="0 0 28 28" fill="none" xmlns="http://www.w3.org/2000/svg">
<path d="M13.125 12.25H14V20.125H14.875M25.375 14C25.375 17.0168 24.1766 19.9101 22.0433 22.0433C19.9101 24.1766 17.0168 25.375 14 25.375C10.9832 25.375 8.08989 24.1766 5.95666 22.0433C3.82343 19.9101 2.625 17.0168 2.625 14C2.625 10.9832 3.82343 8.08989 5.95666 5.95666C8.08989 3.82343 10.9832 2.625 14 2.625C17.0168 2.625 19.9101 3.82343 22.0433 5.95666C24.1766 8.08989 25.375 10.9832 25.375 14Z" stroke="#F2F0F0" stroke-width="2" stroke-linecap="round" stroke-linejoin="round"/>
<mask id="mask0_2576_6029" style="mask-type:luminance" maskUnits="userSpaceOnUse" x="12" y="7" width="4" height="3">
<path d="M15.3125 8.3125C15.3125 8.6606 15.1742 8.99444 14.9281 9.24058C14.6819 9.48672 14.3481 9.625 14 9.625C13.6519 9.625 13.3181 9.48672 13.0719 9.24058C12.8258 8.99444 12.6875 8.6606 12.6875 8.3125C12.6875 7.9644 12.8258 7.63056 13.0719 7.38442C13.3181 7.13828 13.6519 7 14 7C14.3481 7 14.6819 7.13828 14.9281 7.38442C15.1742 7.63056 15.3125 7.9644 15.3125 8.3125Z" fill="white"/>
</mask>
<g mask="url(#mask0_2576_6029)">
<path d="M15.3125 8.3125C15.3125 8.6606 15.1742 8.99444 14.9281 9.24058C14.6819 9.48672 14.3481 9.625 14 9.625C13.6519 9.625 13.3181 9.48672 13.0719 9.24058C12.8258 8.99444 12.6875 8.6606 12.6875 8.3125C12.6875 7.9644 12.8258 7.63056 13.0719 7.38442C13.3181 7.13828 13.6519 7 14 7C14.3481 7 14.6819 7.13828 14.9281 7.38442C15.1742 7.63056 15.3125 7.9644 15.3125 8.3125Z" fill="#F2F0F0" stroke="#F2F0F0" stroke-width="2"/>
</g>
</svg>
