<svg width="124" height="90" viewBox="0 0 124 90" fill="none" xmlns="http://www.w3.org/2000/svg">
<g opacity="0.5" filter="url(#filter0_f_534_111)">
<path d="M25 38.3182C43.0731 38.3182 47.4177 37.3757 49.3371 39.0372C51.2566 40.6987 50.2613 39.9617 52.8285 42.7349C55.3957 45.5082 56.7635 37.0136 58.1683 33.3878C59.5731 29.7619 57.5522 35.0311 60.6328 26.3003C63.7135 17.5695 66.3719 55.901 69.9775 50.1305C73.583 44.36 71.9286 38.3182 76.4468 38.3182C80.9651 38.3182 98.8329 38.6263 98.8329 38.6263" stroke="url(#paint0_linear_534_111)" stroke-width="10" stroke-linecap="round"/>
</g>
<path d="M25.1671 38.3182C43.2403 38.3182 47.5848 37.3757 49.5042 39.0372C51.4237 40.6987 50.4284 39.9617 52.9956 42.7349C55.5629 45.5082 56.9306 37.0136 58.3354 33.3878C59.7402 29.7619 57.7193 35.0311 60.8 26.3003C63.8806 17.5695 66.539 55.901 70.1446 50.1305C73.7501 44.36 72.0957 38.3182 76.614 38.3182C81.1322 38.3182 99 38.6263 99 38.6263" stroke="url(#paint1_linear_534_111)" stroke-width="5" stroke-linecap="round"/>
<path d="M85.4656 42.448C85.4656 42.448 85.4656 46.864 85.4656 49.6282C85.4656 52.3925 85.1557 54.9047 82.6918 56.9073C80.2278 58.9099 76.026 59.1629 73.052 59.1629C70.0781 59.1629 67.3092 59.1629 67.3092 59.1629C65.611 59.1511 63.2808 59.1532 61.6521 59.1569C60.4087 59.1597 59.2126 59.6283 58.296 60.4684L54.7981 63.6739L53.2465 65.1797C51.2216 67.1448 47.8297 65.71 47.8297 62.8883C47.8297 60.9301 46.0634 59.4209 44.1134 59.2421C42.6342 59.1065 40.9881 58.7287 39.7285 57.8262C36.755 55.6956 35.5237 53.8284 35.5237 49.6244V42.1404M85.4656 34.5539C85.4656 34.5539 85.4656 28.4025 85.4656 27.2748C85.4656 27.2748 85.4656 25.3305 85.4656 23.2801C85.4656 21.2296 85.6651 18.0047 83.2045 16.4112C80.7439 14.8177 76.4362 15.1808 72.2316 15.1809C68.0271 15.181 56.1313 15.1809 56.1313 15.1809C56.1313 15.1809 50.0808 15.1809 47.6196 15.1809C45.1584 15.181 40.9004 14.9121 38.6977 16.5136C36.4951 18.1151 35.5237 20.6146 35.5237 23.3827C35.5237 26.1508 35.5237 32.5071 35.5237 32.5071V33.2248V34.045" stroke="#F2F0F0" stroke-width="4"/>
<path d="M36.1378 88.1453V75.0544H41.3026C42.2955 75.0544 43.1413 75.244 43.8402 75.6232C44.5391 75.9982 45.0717 76.5203 45.4382 77.1893C45.8089 77.8541 45.9943 78.6211 45.9943 79.4904C45.9943 80.3598 45.8068 81.1268 45.4318 81.7916C45.0568 82.4563 44.5135 82.9741 43.8018 83.3448C43.0945 83.7156 42.2379 83.9009 41.2322 83.9009H37.9403V81.6829H40.7848C41.3175 81.6829 41.7564 81.5913 42.1016 81.408C42.451 81.2205 42.7109 80.9627 42.8814 80.6346C43.0561 80.3022 43.1435 79.9208 43.1435 79.4904C43.1435 79.0558 43.0561 78.6765 42.8814 78.3526C42.7109 78.0245 42.451 77.771 42.1016 77.592C41.7521 77.4088 41.3089 77.3171 40.772 77.3171H38.9055V88.1453H36.1378ZM54.0371 83.9649V78.3271H56.7601V88.1453H54.1458V86.3619H54.0435C53.8219 86.9372 53.4533 87.3995 52.9377 87.749C52.4263 88.0984 51.802 88.2731 51.0648 88.2731C50.4086 88.2731 49.8311 88.124 49.3326 87.8257C48.834 87.5274 48.4441 87.1034 48.1628 86.5536C47.8858 86.0039 47.7452 85.3455 47.7409 84.5785V78.3271H50.464V84.0927C50.4682 84.6723 50.6238 85.1303 50.9306 85.467C51.2374 85.8036 51.6486 85.972 52.1642 85.972C52.4924 85.972 52.7992 85.8974 53.0847 85.7482C53.3702 85.5948 53.6003 85.369 53.775 85.0707C53.954 84.7724 54.0414 84.4038 54.0371 83.9649ZM61.6612 75.0544V88.1453H58.9382V75.0544H61.6612ZM72.0115 81.1268L69.5186 81.2802C69.476 81.0671 69.3844 80.8754 69.2438 80.7049C69.1032 80.5302 68.9178 80.3917 68.6877 80.2894C68.4618 80.1829 68.1912 80.1296 67.8759 80.1296C67.454 80.1296 67.0982 80.2191 66.8084 80.3981C66.5186 80.5728 66.3738 80.8072 66.3738 81.1012C66.3738 81.3356 66.4675 81.5338 66.655 81.6957C66.8425 81.8576 67.1642 81.9876 67.6202 82.0856L69.3972 82.4436C70.3517 82.6396 71.0634 82.9549 71.5321 83.3896C72.0009 83.8242 72.2353 84.3953 72.2353 85.1026C72.2353 85.7461 72.0456 86.3107 71.6664 86.7965C71.2914 87.2823 70.7757 87.6616 70.1195 87.9343C69.4675 88.2028 68.7154 88.337 67.8631 88.337C66.5634 88.337 65.5279 88.0664 64.7566 87.5252C63.9895 86.9798 63.54 86.2383 63.4078 85.3008L66.0861 85.1602C66.1671 85.5565 66.3631 85.859 66.6742 86.0678C66.9853 86.2724 67.3837 86.3747 67.8695 86.3747C68.3468 86.3747 68.7303 86.283 69.0201 86.0998C69.3141 85.9123 69.4632 85.6715 69.4675 85.3775C69.4632 85.1303 69.3588 84.9279 69.1543 84.7703C68.9498 84.6083 68.6344 84.4848 68.2083 84.3995L66.508 84.0607C65.5492 83.869 64.8354 83.5366 64.3667 83.0636C63.9022 82.5906 63.6699 81.9876 63.6699 81.2546C63.6699 80.624 63.8404 80.0806 64.1813 79.6247C64.5265 79.1687 65.0101 78.8171 65.6323 78.57C66.2587 78.3228 66.9917 78.1992 67.8311 78.1992C69.0712 78.1992 70.0471 78.4613 70.7587 78.9855C71.4746 79.5096 71.8922 80.2234 72.0115 81.1268ZM78.4244 88.337C77.4144 88.337 76.5451 88.1325 75.8164 87.7234C75.092 87.31 74.5337 86.7262 74.1417 85.972C73.7496 85.2134 73.5536 84.3164 73.5536 83.2809C73.5536 82.271 73.7496 81.3846 74.1417 80.6218C74.5337 79.859 75.0856 79.2646 75.7972 78.8384C76.5131 78.4123 77.3526 78.1992 78.3157 78.1992C78.9634 78.1992 79.5664 78.3036 80.1246 78.5125C80.6871 78.717 81.1772 79.0259 81.5948 79.4393C82.0167 79.8526 82.3448 80.3725 82.5792 80.999C82.8136 81.6211 82.9308 82.3498 82.9308 83.185V83.9329H74.6403V82.2454H80.3675C80.3675 81.8534 80.2823 81.5061 80.1119 81.2035C79.9414 80.9009 79.7049 80.6644 79.4023 80.494C79.104 80.3193 78.7567 80.2319 78.3604 80.2319C77.9471 80.2319 77.5806 80.3278 77.261 80.5196C76.9457 80.7071 76.6985 80.9606 76.5195 81.2802C76.3406 81.5955 76.2489 81.9471 76.2447 82.3349V83.9393C76.2447 84.4251 76.3342 84.8448 76.5131 85.1985C76.6964 85.5522 76.9542 85.825 77.2866 86.0167C77.619 86.2085 78.0131 86.3044 78.4691 86.3044C78.7717 86.3044 79.0487 86.2617 79.3001 86.1765C79.5515 86.0913 79.7667 85.9634 79.9457 85.793C80.1246 85.6225 80.261 85.4137 80.3548 85.1666L82.8732 85.3328C82.7454 85.9379 82.4833 86.4663 82.087 86.918C81.695 87.3654 81.1879 87.7149 80.5657 87.9663C79.9478 88.2134 79.234 88.337 78.4244 88.337Z" fill="#F2F0F0"/>
<defs>
<filter id="filter0_f_534_111" x="0" y="0" width="123.833" height="75.73" filterUnits="userSpaceOnUse" color-interpolation-filters="sRGB">
<feFlood flood-opacity="0" result="BackgroundImageFix"/>
<feBlend mode="normal" in="SourceGraphic" in2="BackgroundImageFix" result="shape"/>
<feGaussianBlur stdDeviation="10" result="effect1_foregroundBlur_534_111"/>
</filter>
<linearGradient id="paint0_linear_534_111" x1="98.8329" y1="37.863" x2="25" y2="37.863" gradientUnits="userSpaceOnUse">
<stop stop-color="#22464E"/>
<stop offset="0.35" stop-color="#5A8A6E"/>
<stop offset="0.54" stop-color="#6583FA"/>
<stop offset="0.7" stop-color="#2B44B1"/>
<stop offset="1" stop-color="#2B3899"/>
</linearGradient>
<linearGradient id="paint1_linear_534_111" x1="99" y1="37.8119" x2="25.1671" y2="37.9142" gradientUnits="userSpaceOnUse">
<stop stop-color="#22464E"/>
<stop offset="0.35" stop-color="#5A8A6E"/>
<stop offset="0.54" stop-color="#6583FA"/>
<stop offset="0.7" stop-color="#2B44B1"/>
<stop offset="1" stop-color="#2B3899"/>
</linearGradient>
</defs>
</svg>
