<svg width="54" height="54" viewBox="0 0 54 54" fill="none" xmlns="http://www.w3.org/2000/svg">
<path d="M17.5 32.5C18.315 31.4133 19.3719 30.5313 20.5869 29.9238C21.8019 29.3163 23.1416 29 24.5 29C27.363 29 29.904 30.3755 31.5 32.5M30.8438 19.1773V20.1047M18.1562 19.1773V20.1047M18.8125 19.8125C18.8125 19.088 18.5185 18.5 18.1562 18.5C17.794 18.5 17.5 19.088 17.5 19.8125C17.5 20.537 17.794 21.125 18.1562 21.125C18.5185 21.125 18.8125 20.537 18.8125 19.8125ZM31.5 19.8125C31.5 19.088 31.206 18.5 30.8438 18.5C30.4815 18.5 30.1875 19.088 30.1875 19.8125C30.1875 20.537 30.4815 21.125 30.8438 21.125C31.206 21.125 31.5 20.537 31.5 19.8125Z" stroke="#F2F0F0" stroke-width="2" stroke-linecap="round" stroke-linejoin="round"/>
<path d="M37.8073 37.8073L46.7031 46.7031M42.2552 24.4635C42.2552 19.7449 40.3807 15.2195 37.0441 11.8829C33.7076 8.54635 29.1822 6.67188 24.4635 6.67188C19.7449 6.67188 15.2195 8.54635 11.8829 11.8829C8.54635 15.2195 6.67188 19.7449 6.67188 24.4635C6.67188 29.1822 8.54635 33.7076 11.8829 37.0441C15.2195 40.3807 19.7449 42.2552 24.4635 42.2552C29.1822 42.2552 33.7076 40.3807 37.0441 37.0441C40.3807 33.7076 42.2552 29.1822 42.2552 24.4635Z" stroke="#F2F0F0" stroke-width="2" stroke-linecap="round" stroke-linejoin="round"/>
</svg>
