<svg width="50" height="50" viewBox="0 0 50 50" fill="none" xmlns="http://www.w3.org/2000/svg">
<path d="M25 33.3335C28.4518 33.3335 31.25 30.5353 31.25 27.0835C31.25 23.6317 28.4518 20.8335 25 20.8335C21.5482 20.8335 18.75 23.6317 18.75 27.0835C18.75 30.5353 21.5482 33.3335 25 33.3335Z" stroke="#F2F0F0" stroke-width="1.5"/>
<path d="M20.3707 43.7501H29.629C36.1311 43.7501 39.3832 43.7501 41.7186 42.2188C42.7266 41.5587 43.5945 40.7064 44.2728 39.7105C45.8332 37.4188 45.8332 34.2251 45.8332 27.8418C45.8332 21.4584 45.8332 18.2647 44.2728 15.973C43.5945 14.9772 42.7266 14.1248 41.7186 13.4647C40.2186 12.4793 38.3394 12.1272 35.4623 12.0022C34.0894 12.0022 32.9082 10.9813 32.6394 9.65843C32.434 8.68941 31.9004 7.82101 31.1287 7.19999C30.357 6.57898 29.3945 6.24345 28.404 6.2501H21.5957C19.5373 6.2501 17.7644 7.67718 17.3603 9.65843C17.0915 10.9813 15.9103 12.0022 14.5373 12.0022C11.6623 12.1272 9.78317 12.4813 8.28109 13.4647C7.27387 14.125 6.40666 14.9774 5.729 15.973C4.1665 18.2647 4.1665 21.4563 4.1665 27.8418C4.1665 34.2272 4.1665 37.4168 5.72692 39.7105C6.40192 40.7022 7.26859 41.5543 8.28109 42.2188C10.6165 43.7501 13.8686 43.7501 20.3707 43.7501Z" stroke="#F2F0F0" stroke-width="1.5"/>
<path d="M39.5833 20.8335H37.5" stroke="#F2F0F0" stroke-width="1.5" stroke-linecap="round"/>
</svg>
