<svg width="40" height="40" viewBox="0 0 40 40" fill="none" xmlns="http://www.w3.org/2000/svg">
<g opacity="0.5">
<g clip-path="url(#clip0_1499_4168)">
<path d="M23.6176 34.8175C30.5893 34.3542 36.1426 28.722 36.5996 21.6515C36.689 20.2679 36.689 18.8349 36.5996 17.4512C36.1426 10.3807 30.5893 4.74857 23.6176 4.28514C21.2391 4.12704 18.756 4.12737 16.3823 4.28514C9.41062 4.74857 3.85733 10.3807 3.40038 17.4512C3.31096 18.8349 3.31096 20.2679 3.40038 21.6515C3.56681 24.2267 4.70569 26.611 6.04649 28.6244C6.82499 30.0339 6.31121 31.793 5.50033 33.3297C4.91566 34.4377 4.62333 34.9917 4.85804 35.3919C5.09278 35.792 5.61707 35.8049 6.66569 35.8304C8.73942 35.8809 10.1378 35.2929 11.2478 34.4744C11.8773 34.0102 12.1921 33.778 12.409 33.7514C12.626 33.7247 13.0529 33.9005 13.9067 34.2522C14.674 34.5682 15.5649 34.7632 16.3823 34.8175C18.756 34.9753 21.2391 34.9757 23.6176 34.8175Z" stroke="#F2F0F0" stroke-width="3" stroke-linecap="round" stroke-linejoin="round"/>
</g>
</g>
<defs>
<clipPath id="clip0_1499_4168">
<rect width="40" height="40" fill="white"/>
</clipPath>
</defs>
</svg>
