<svg width="29" height="29" viewBox="0 0 29 29" fill="none" xmlns="http://www.w3.org/2000/svg">
<path d="M15.5833 11.2083C18.4023 11.2083 20.6875 8.92312 20.6875 6.10417C20.6875 3.28521 18.4023 1 15.5833 1C12.7644 1 10.4792 3.28521 10.4792 6.10417C10.4792 8.92312 12.7644 11.2083 15.5833 11.2083Z" stroke="#F2F0F0" stroke-width="2" stroke-linecap="round" stroke-linejoin="round"/>
<path d="M1 27.9792C1 21.5355 6.87635 16.3125 14.125 16.3125M25.0625 20.6875V18.5C25.0625 17.9198 24.832 17.3634 24.4218 16.9532C24.0116 16.543 23.4552 16.3125 22.875 16.3125C22.2948 16.3125 21.7384 16.543 21.3282 16.9532C20.918 17.3634 20.6875 17.9198 20.6875 18.5V20.6875M17.7708 20.6875H27.9792V27.9792H17.7708V20.6875Z" stroke="#F2F0F0" stroke-width="2" stroke-linecap="round" stroke-linejoin="round"/>
</svg>
