<svg width="26" height="26" viewBox="0 0 26 26" fill="none" xmlns="http://www.w3.org/2000/svg">
<path d="M1 21.4166C1 19.8695 1.61458 18.3858 2.70854 17.2918C3.80251 16.1978 5.28624 15.5833 6.83333 15.5833H18.5C20.0471 15.5833 21.5308 16.1978 22.6248 17.2918C23.7188 18.3858 24.3333 19.8695 24.3333 21.4166C24.3333 22.1901 24.026 22.932 23.4791 23.479C22.9321 24.026 22.1902 24.3333 21.4167 24.3333H3.91667C3.14312 24.3333 2.40125 24.026 1.85427 23.479C1.30729 22.932 1 22.1901 1 21.4166Z" stroke="#F2F0F0" stroke-width="2" stroke-linejoin="round"/>
<path d="M12.6667 9.75C15.0829 9.75 17.0417 7.79125 17.0417 5.375C17.0417 2.95875 15.0829 1 12.6667 1C10.2504 1 8.29169 2.95875 8.29169 5.375C8.29169 7.79125 10.2504 9.75 12.6667 9.75Z" stroke="#F2F0F0" stroke-width="2"/>
</svg>
