<svg width="54" height="43" viewBox="0 0 54 43" fill="none" xmlns="http://www.w3.org/2000/svg">
<g clip-path="url(#clip0_2191_9954)">
<path d="M27.2656 19.2456C27.2665 20.4537 26.6133 21.4321 25.8085 21.4324C25.0023 21.4322 24.3499 20.4527 24.349 19.2446C24.3495 18.037 25.0027 17.0585 25.8075 17.0583C26.6137 17.0584 27.2661 18.0379 27.2656 19.2456ZM18.5164 19.2459C18.5158 20.4536 17.8637 21.4339 17.0575 21.4337C16.2513 21.4336 15.5988 20.4541 15.5993 19.2464C15.5998 18.0387 16.252 17.0585 17.0582 17.0586C17.8644 17.0587 18.5169 18.0382 18.5164 19.2459Z" fill="#F2F0F0"/>
<path fill-rule="evenodd" clip-rule="evenodd" d="M28.5736 9.47904C26.854 9.24777 24.5943 9.2462 21.4343 9.24645C18.2714 9.24595 16.0106 9.2486 14.2924 9.4797C12.6054 9.70709 11.606 10.1353 10.8698 10.8711C10.1355 11.6058 9.7062 12.605 9.47901 14.2925C9.24774 16.012 9.24616 18.2718 9.24642 21.4318C9.24592 24.5946 9.24857 26.8555 9.47967 28.5736C9.70705 30.2606 10.1352 31.2601 10.871 31.9962C11.6058 32.7306 12.605 33.1599 14.2924 33.387C16.012 33.6183 18.2717 33.6199 21.4318 33.6196C24.5946 33.6201 26.8555 33.6175 28.5736 33.3864C30.2606 33.159 31.26 32.7308 31.9962 31.995C32.7305 31.2602 33.1598 30.2611 33.387 28.5736C33.6183 26.854 33.6199 24.5943 33.6196 21.4343C33.6201 18.2714 33.6174 16.0106 33.3863 14.2924C33.159 12.6055 32.7308 11.606 31.995 10.8699C31.2602 10.1355 30.261 9.70624 28.5736 9.47904ZM28.8644 7.31192C30.794 7.57078 32.3332 8.11456 33.5418 9.32313C34.7514 10.5335 35.2961 12.073 35.5541 14.0006C35.8079 15.8819 35.8074 18.2898 35.8072 21.3501L35.8079 21.5164C35.8077 24.5767 35.8076 26.9832 35.5541 28.8644C35.2953 30.794 34.7515 32.3332 33.5415 33.5414C32.3326 34.7514 30.7945 35.2965 28.8654 35.5541C26.9842 35.8079 24.5762 35.8074 21.5159 35.8072L21.3497 35.808C18.2894 35.8078 15.8814 35.8072 14.0016 35.5542C12.0721 35.2953 10.5328 34.7515 9.32464 33.5415C8.11464 32.3326 7.56956 30.7945 7.31194 28.8655C7.05812 26.9842 7.05724 24.5759 7.05884 21.516L7.0581 21.3497C7.05828 18.2894 7.05882 15.8815 7.31189 14.0017C7.57075 12.0721 8.11453 10.5329 9.3231 9.3243C10.5335 8.11468 12.0729 7.56998 14.0006 7.31198C15.8819 7.05815 18.2902 7.05728 21.3501 7.05887L21.5163 7.05813C24.5766 7.05832 26.9846 7.05886 28.8644 7.31192ZM28.224 25.2758C28.3648 25.5292 28.3992 25.8281 28.3197 26.1069C28.2402 26.3857 28.0532 26.6215 27.8 26.7625C27.4955 26.9325 27.1837 27.0887 26.8653 27.2307L27.0048 27.9385C27.088 28.3613 27.0872 28.7963 27.0024 29.2189C26.9175 29.6414 26.7503 30.043 26.5102 30.4009C26.2701 30.7588 25.9619 31.0658 25.6031 31.3046C25.2444 31.5433 24.8421 31.7091 24.4193 31.7924C23.9965 31.8757 23.5614 31.8749 23.1389 31.79C22.7164 31.7051 22.3147 31.5379 21.9569 31.2978C21.599 31.0577 21.2919 30.7495 21.0532 30.3908C20.8144 30.032 20.6487 29.6297 20.5654 29.2069L20.3907 28.3207C18.5259 28.1904 16.7114 27.6588 15.0711 26.7624C14.9397 26.696 14.8231 26.6037 14.7283 26.4911C14.6334 26.3785 14.5623 26.248 14.5191 26.1072C14.4759 25.9665 14.4616 25.8185 14.477 25.6721C14.4923 25.5257 14.5371 25.3839 14.6086 25.2552C14.6801 25.1266 14.7768 25.0136 14.893 24.9232C15.0092 24.8328 15.1424 24.7668 15.2847 24.7291C15.427 24.6914 15.5755 24.6829 15.7212 24.7039C15.8668 24.725 16.0068 24.7752 16.1326 24.8516C17.6175 25.6768 19.4448 26.1709 21.4347 26.1712C23.4245 26.1714 25.2511 25.6765 26.7358 24.8514C26.9893 24.7106 27.2882 24.6762 27.567 24.7557C27.8458 24.8352 28.083 25.0225 28.224 25.2758ZM22.6177 28.309L22.7109 28.7838C22.7668 29.0685 22.9334 29.3193 23.1742 29.4811C23.415 29.6428 23.7102 29.7023 23.9948 29.6465C24.2795 29.5906 24.5303 29.424 24.692 29.1832C24.8538 28.9424 24.9133 28.6472 24.8575 28.3626L24.7763 27.9498C24.0681 28.1289 23.3458 28.25 22.6177 28.309Z" fill="#F2F0F0"/>
</g>
<line x1="53.3661" y1="8.93304" x2="53.3661" y2="33.933" stroke="white"/>
<defs>
<clipPath id="clip0_2191_9954">
<rect width="42.8661" height="42.8661" fill="white"/>
</clipPath>
</defs>
</svg>
