<svg width="51" height="40" viewBox="0 0 51 40" fill="none" xmlns="http://www.w3.org/2000/svg">
<path d="M24.9214 18.1544C24.9222 19.1737 24.371 19.9993 23.692 19.9995C23.0117 19.9994 22.4612 19.1729 22.4604 18.1536C22.4608 17.1346 23.012 16.309 23.6911 16.3087C24.3713 16.3088 24.9218 17.1354 24.9214 18.1544ZM17.539 18.1547C17.5385 19.1737 16.9882 20.0008 16.308 20.0007C15.6278 20.0006 15.0772 19.1741 15.0776 18.155C15.0781 17.136 15.6284 16.3089 16.3086 16.309C16.9889 16.3091 17.5394 17.1356 17.539 18.1547Z" fill="#F2F0F0"/>
<path fill-rule="evenodd" clip-rule="evenodd" d="M26.0252 9.91354C24.5743 9.71839 22.6676 9.71706 20.0012 9.71728C17.3325 9.71686 15.4248 9.71909 13.9751 9.91409C12.5517 10.106 11.7083 10.4673 11.0872 11.0881C10.4675 11.7081 10.1053 12.5512 9.91362 13.975C9.71848 15.426 9.71715 17.3327 9.71737 19.999C9.71695 22.6678 9.71918 24.5754 9.91418 26.0252C10.106 27.4486 10.4673 28.2919 11.0882 28.9131C11.7082 29.5327 12.5513 29.8949 13.9751 30.0866C15.426 30.2818 17.3328 30.2831 19.9991 30.2829C22.6679 30.2833 24.5755 30.2811 26.0253 30.0861C27.4487 29.8942 28.292 29.5329 28.9132 28.9121C29.5328 28.2921 29.895 27.449 30.0867 26.0252C30.2819 24.5742 30.2832 22.6675 30.283 20.0011C30.2834 17.3324 30.2812 15.4247 30.0862 13.975C29.8943 12.5516 29.533 11.7082 28.9122 11.0871C28.2922 10.4675 27.4491 10.1052 26.0252 9.91354ZM26.2706 8.08496C27.8988 8.30338 29.1975 8.76221 30.2173 9.78198C31.238 10.8033 31.6976 12.1022 31.9153 13.7288C32.1294 15.3161 32.129 17.3479 32.1288 19.9301L32.1295 20.0704C32.1293 22.6526 32.1292 24.6832 31.9153 26.2705C31.6969 27.8987 31.2381 29.1974 30.2171 30.2169C29.197 31.2379 27.8992 31.6978 26.2715 31.9152C24.6841 32.1293 22.6524 32.1289 20.0702 32.1287L19.9299 32.1294C17.3477 32.1292 15.3159 32.1288 13.7297 31.9152C12.1016 31.6968 10.8028 31.238 9.78337 30.217C8.7624 29.1969 8.30247 27.8991 8.0851 26.2714C7.87092 24.684 7.87019 22.6519 7.87153 20.0701L7.87091 19.9298C7.87107 17.3476 7.87152 15.3158 8.08505 13.7296C8.30347 12.1015 8.7623 10.8027 9.78207 9.78296C10.8033 8.76231 12.1023 8.3027 13.7289 8.08501C15.3162 7.87083 17.3483 7.8701 19.9302 7.87144L20.0705 7.87082C22.6527 7.87098 24.6845 7.87143 26.2706 8.08496ZM25.7303 23.2425C25.8491 23.4564 25.8781 23.7086 25.811 23.9438C25.7439 24.179 25.5862 24.378 25.3725 24.497C25.1156 24.6404 24.8525 24.7722 24.5838 24.8921L24.7015 25.4892C24.7718 25.846 24.7711 26.2131 24.6995 26.5696C24.6279 26.9261 24.4868 27.265 24.2842 27.567C24.0816 27.8689 23.8216 28.128 23.5189 28.3295C23.2161 28.531 22.8767 28.6708 22.52 28.7411C22.1632 28.8114 21.7961 28.8107 21.4396 28.7391C21.0831 28.6675 20.7442 28.5264 20.4422 28.3238C20.1402 28.1212 19.8811 27.8612 19.6797 27.5584C19.4782 27.2557 19.3384 26.9163 19.2681 26.5595L19.1207 25.8117C17.5473 25.7018 16.0161 25.2533 14.6321 24.4969C14.5212 24.4409 14.4229 24.363 14.3428 24.268C14.2628 24.173 14.2028 24.0628 14.1663 23.9441C14.1299 23.8253 14.1178 23.7005 14.1308 23.5769C14.1438 23.4534 14.1816 23.3338 14.2419 23.2252C14.3022 23.1166 14.3838 23.0213 14.4819 22.945C14.5799 22.8688 14.6923 22.8131 14.8124 22.7813C14.9324 22.7495 15.0577 22.7422 15.1806 22.76C15.3036 22.7778 15.4216 22.8201 15.5278 22.8846C16.7808 23.5809 18.3226 23.9978 20.0016 23.998C21.6806 23.9982 23.2218 23.5806 24.4746 22.8844C24.6884 22.7656 24.9407 22.7366 25.1759 22.8037C25.4111 22.8708 25.6113 23.0288 25.7303 23.2425ZM20.9998 25.8019L21.0784 26.2026C21.1256 26.4427 21.2662 26.6544 21.4694 26.7909C21.6725 26.9274 21.9216 26.9776 22.1618 26.9304C22.402 26.8833 22.6136 26.7427 22.7501 26.5395C22.8866 26.3363 22.9368 26.0873 22.8897 25.8471L22.8212 25.4988C22.2236 25.6499 21.6142 25.7521 20.9998 25.8019Z" fill="#F2F0F0"/>
<line x1="49.8315" y1="8.33533" x2="49.8315" y2="31.6638" stroke="#F2F0F0"/>
</svg>
