<svg width="33" height="33" viewBox="0 0 33 33" fill="none" xmlns="http://www.w3.org/2000/svg">
<path d="M31.3701 17.5656C31.3701 17.5656 31.3701 20.245 31.3701 21.9222C31.3701 23.5993 31.1816 25.1236 29.6833 26.3387C28.1849 27.5537 25.6298 27.7072 23.8213 27.7072C22.0128 27.7072 20.329 27.7072 20.329 27.7072C19.5377 27.7017 18.5207 27.7012 17.6429 27.7023C16.4014 27.7038 15.2068 28.1712 14.2906 29.009L12.7209 30.4442L11.7722 31.3629C10.5416 32.5544 8.48339 31.6824 8.48339 29.9694C8.48339 28.7802 7.41096 27.8635 6.22663 27.7556C5.32631 27.6735 4.32383 27.4445 3.55696 26.8962C1.74872 25.6034 1 24.4706 1 21.9199V17.379M31.3701 12.776C31.3701 12.776 31.3701 9.04371 31.3701 8.35946C31.3701 8.35946 31.3701 7.17979 31.3701 5.93571C31.3701 4.69162 31.4914 2.73494 29.9951 1.76811C28.4987 0.801269 25.8792 1.02158 23.3224 1.02162C20.7656 1.02167 13.5316 1.02162 13.5316 1.02162C13.5316 1.02162 9.85228 1.02161 8.3556 1.02163C6.85893 1.02166 4.2696 0.858541 2.93015 1.83023C1.59069 2.80192 1 4.31844 1 5.99796C1 7.67747 1 11.5341 1 11.5341V11.9695V12.4672" stroke="#F2F0F0" stroke-width="2"/>
</svg>
