<svg width="28" height="28" viewBox="0 0 28 28" fill="none" xmlns="http://www.w3.org/2000/svg">
<path d="M3.5 19.8333C3.5 20.9183 3.5 21.4608 3.619 21.9053C3.77786 22.4989 4.09017 23.0401 4.52454 23.4747C4.95891 23.9093 5.50003 24.2219 6.0935 24.381C6.53917 24.5 7.08167 24.5 8.16667 24.5H19.8333C20.9183 24.5 21.4608 24.5 21.9053 24.381C22.499 24.222 23.0404 23.9096 23.475 23.475C23.9096 23.0404 24.222 22.499 24.381 21.9053C24.5 21.462 24.5 20.9183 24.5 19.8333M19.25 8.75C19.25 8.75 15.3837 3.5 14 3.5C12.6163 3.5 8.75 8.75 8.75 8.75M14 4.66667V18.6667" stroke="#F2F0F0" stroke-width="1.5" stroke-linecap="round" stroke-linejoin="round"/>
</svg>
