<svg width="28" height="28" viewBox="0 0 28 28" fill="none" xmlns="http://www.w3.org/2000/svg">
<path d="M19.1624 5.37262L20.3174 4.21762C20.7769 3.75814 21.4001 3.5 22.0499 3.5C22.6997 3.5 23.3229 3.75814 23.7824 4.21762C24.2419 4.67711 24.5 5.30031 24.5 5.95012C24.5 6.59994 24.2419 7.22314 23.7824 7.68262L22.6274 8.83762M19.1624 5.37262L11.3924 13.1426C10.8005 13.7349 10.3807 14.4769 10.1779 15.2893L9.33325 18.6668L12.7119 17.8221C13.5244 17.619 14.2664 17.1988 14.8586 16.6065L22.6274 8.83762M19.1624 5.37262L22.6274 8.83762" stroke="#F2F0F0" stroke-width="1.75" stroke-linejoin="round"/>
<path d="M22.1667 15.7497C22.1667 19.5857 22.1667 21.5025 21.1073 22.794C20.9136 23.0301 20.6971 23.2466 20.461 23.4403C19.1683 24.4997 17.2527 24.4997 13.4167 24.4997H12.8333C8.43383 24.4997 6.2335 24.4997 4.86733 23.1323C3.50117 21.765 3.5 19.5658 3.5 15.1663V14.583C3.5 10.7482 3.5 8.83017 4.55933 7.53867C4.75378 7.30223 4.96922 7.08679 5.20567 6.89234C6.49833 5.83301 8.414 5.83301 12.25 5.83301" stroke="#F2F0F0" stroke-width="1.75" stroke-linecap="round" stroke-linejoin="round"/>
</svg>
