<svg width="25" height="25" viewBox="0 0 25 25" fill="none" xmlns="http://www.w3.org/2000/svg">
<path d="M14.6875 4.68857L19.6875 9.68857M1.915 17.5761L0.9375 23.4386L6.8 22.4611C7.8185 22.2919 8.75861 21.8085 9.48875 21.0786L22.7125 7.85357C23.1766 7.38943 23.4373 6.75994 23.4373 6.10357C23.4373 5.44721 23.1766 4.81772 22.7125 4.35357L20.0237 1.66357C19.7939 1.4334 19.5209 1.2508 19.2204 1.12621C18.9199 1.00163 18.5978 0.9375 18.2725 0.9375C17.9472 0.9375 17.6251 1.00163 17.3246 1.12621C17.0241 1.2508 16.7511 1.4334 16.5213 1.66357L3.2975 14.8886C2.56777 15.6184 2.0844 16.558 1.915 17.5761Z" stroke="#455DBA" stroke-width="1.875" stroke-linecap="round" stroke-linejoin="round"/>
</svg>
