<svg width="50" height="50" viewBox="0 0 50 50" fill="none" xmlns="http://www.w3.org/2000/svg">
<path d="M8.33337 37.4998C8.33337 35.2897 9.21135 33.1701 10.7742 31.6073C12.337 30.0445 14.4566 29.1665 16.6667 29.1665H33.3334C35.5435 29.1665 37.6631 30.0445 39.2259 31.6073C40.7887 33.1701 41.6667 35.2897 41.6667 37.4998C41.6667 38.6049 41.2277 39.6647 40.4463 40.4461C39.6649 41.2275 38.6051 41.6665 37.5 41.6665H12.5C11.395 41.6665 10.3352 41.2275 9.55376 40.4461C8.77236 39.6647 8.33337 38.6049 8.33337 37.4998Z" stroke="#F2F0F0" stroke-width="2" stroke-linejoin="round"/>
<path d="M25 20.8333C28.4518 20.8333 31.25 18.035 31.25 14.5833C31.25 11.1315 28.4518 8.33325 25 8.33325C21.5482 8.33325 18.75 11.1315 18.75 14.5833C18.75 18.035 21.5482 20.8333 25 20.8333Z" stroke="#F2F0F0" stroke-width="2"/>
</svg>
