<svg width="50" height="50" viewBox="0 0 50 50" fill="none" xmlns="http://www.w3.org/2000/svg">
<g opacity="0.5">
<path d="M36.0268 38.3333H36.8438C38.7601 38.3333 40.2844 37.4601 41.6531 36.2393C45.1299 33.1376 36.9568 30 34.1666 30M30.8333 13.4479C31.2118 13.3729 31.6048 13.3333 32.0079 13.3333C35.0411 13.3333 37.4999 15.5719 37.4999 18.3333C37.4999 21.0947 35.0411 23.3333 32.0079 23.3333C31.6048 23.3333 31.2118 23.2938 30.8333 23.2186" stroke="#F2F0F0" stroke-width="3" stroke-linecap="round" stroke-linejoin="round"/>
<path d="M12.4689 31.852C10.5039 32.905 5.3519 35.0552 8.4898 37.7457C10.0227 39.06 11.7299 40 13.8762 40H26.1238C28.2702 40 29.9773 39.06 31.5102 37.7457C34.6482 35.0552 29.4962 32.905 27.5312 31.852C22.9233 29.3827 17.0767 29.3827 12.4689 31.852Z" stroke="#F2F0F0" stroke-width="3" stroke-linecap="round" stroke-linejoin="round"/>
<path d="M26.6666 17.5C26.6666 21.1819 23.6818 24.1666 19.9999 24.1666C16.318 24.1666 13.3333 21.1819 13.3333 17.5C13.3333 13.8181 16.318 10.8333 19.9999 10.8333C23.6818 10.8333 26.6666 13.8181 26.6666 17.5Z" stroke="#F2F0F0" stroke-width="3" stroke-linecap="round" stroke-linejoin="round"/>
</g>
</svg>
