<svg width="50" height="50" viewBox="0 0 50 50" fill="none" xmlns="http://www.w3.org/2000/svg">
<g opacity="0.5">
<path d="M31.6667 11.6666C32.8129 11.6663 33.9243 12.0598 34.815 12.7811C35.7057 13.5025 36.3215 14.5079 36.5593 15.6291C36.7971 16.7503 36.6425 17.9192 36.1214 18.94C35.6003 19.9608 34.7443 20.7716 33.6967 21.2366M34.5234 26.6666C35.4615 26.6666 36.3903 26.8514 37.257 27.2104C38.1237 27.5694 38.9112 28.0955 39.5745 28.7589C40.2378 29.4222 40.764 30.2097 41.123 31.0763C41.4819 31.943 41.6667 32.8719 41.6667 33.81C41.6667 35.3883 40.3884 36.6666 38.81 36.6666M18.3334 11.6666C17.1872 11.6663 16.0758 12.0598 15.1851 12.7811C14.2944 13.5025 13.6786 14.5079 13.4408 15.6291C13.2029 16.7503 13.3575 17.9192 13.8787 18.94C14.3998 19.9608 15.2558 20.7716 16.3034 21.2366M11.19 36.6666C10.4324 36.6666 9.7058 36.3657 9.17007 35.8299C8.63434 35.2942 8.33337 34.5676 8.33337 33.81C8.33337 32.8719 8.51814 31.943 8.87713 31.0763C9.23611 30.2097 9.76229 29.4222 10.4256 28.7589C11.0889 28.0955 11.8764 27.5694 12.7431 27.2104C13.6097 26.8514 14.5386 26.6666 15.4767 26.6666M30 18.3333C30 19.6594 29.4733 20.9311 28.5356 21.8688C27.5979 22.8065 26.3261 23.3333 25 23.3333C23.674 23.3333 22.4022 22.8065 21.4645 21.8688C20.5268 20.9311 20 19.6594 20 18.3333C20 17.0072 20.5268 15.7354 21.4645 14.7978C22.4022 13.8601 23.674 13.3333 25 13.3333C26.3261 13.3333 27.5979 13.8601 28.5356 14.7978C29.4733 15.7354 30 17.0072 30 18.3333ZM27.8567 28.3333H22.1434C21.2053 28.3333 20.2764 28.5181 19.4097 28.877C18.5431 29.236 17.7556 29.7622 17.0923 30.4255C16.429 31.0888 15.9028 31.8763 15.5438 32.743C15.1848 33.6097 15 34.5386 15 35.4766C15 37.055 16.2784 38.3333 17.8567 38.3333H32.1434C33.7217 38.3333 35 37.055 35 35.4766C35 34.5386 34.8153 33.6097 34.4563 32.743C34.0973 31.8763 33.5711 31.0888 32.9078 30.4255C32.2445 29.7622 31.457 29.236 30.5903 28.877C29.7237 28.5181 28.7948 28.3333 27.8567 28.3333Z" stroke="#F2F0F0" stroke-width="1.75" stroke-linecap="round" stroke-linejoin="round"/>
</g>
</svg>
